# Blender v2.73 (sub 0) OBJ File: ''
# www.blender.org
o Plane1.002_Plane.004
v 1.840766 -0.577549 1.943607
v 2.121426 0.117110 0.089239
v -0.013602 0.171664 1.943608
v 2.121426 0.117110 0.089239
v -0.013602 0.171664 1.943608
vn 0.347300 0.859700 0.374600
vn 0.000000 0.000000 1.000000
s off
f 1//1 2//1 3//1
f 3//2 2//2 4//2
f 5//2 3//2 4//2
o Plane1.001_Plane.003
v -1.932642 -0.369560 -1.962481
v -2.040264 0.136767 -0.030630
v 0.023654 0.046263 -1.962482
v -2.040264 0.136767 -0.030630
v 0.023654 0.046263 -1.962482
vn -0.200800 0.944800 -0.258800
vn 0.000000 0.000000 1.000000
s off
f 6//3 7//3 8//3
f 8//4 7//4 9//4
f 10//4 8//4 9//4
o Plane1_Plane.002
v 1.833878 -0.566475 -1.915146
v -0.033282 0.150261 -1.915146
v 2.102373 0.132976 -0.060778
v -0.033282 0.150261 -1.915146
v 2.102373 0.132976 -0.060778
vn 0.332300 0.865600 -0.374600
vn 0.000000 0.000000 1.000000
s off
f 11//5 12//5 13//5
f 13//6 12//6 14//6
f 15//6 13//6 14//6
o Plane2_Plane.001
v -1.775178 -0.678483 1.890416
v 0.037437 0.166753 1.890416
v -2.171993 0.172488 0.124521
v 0.037437 0.166753 1.890416
v -2.171993 0.172488 0.124521
vn -0.373100 0.800200 0.469500
vn 0.000000 0.000000 1.000000
s off
f 16//7 17//7 18//7
f 18//8 17//8 19//8
f 20//8 18//8 19//8
